<?xml version="1.0" encoding="UTF-8" standalone="no"?>
<!DOCTYPE svg PUBLIC "-//W3C//DTD SVG 1.1//EN" "http://www.w3.org/Graphics/SVG/1.1/DTD/svg11.dtd">
<svg width="100%" height="100%" viewBox="0 0 1657 683" version="1.1" xmlns="http://www.w3.org/2000/svg" xmlns:xlink="http://www.w3.org/1999/xlink" xml:space="preserve" xmlns:serif="http://www.serif.com/" style="fill-rule:evenodd;clip-rule:evenodd;stroke-linejoin:round;stroke-miterlimit:2;">
    <g transform="matrix(1,0,0,1,-272,-3098.91)">
        <g>
            <g transform="matrix(1,0,0,1,-809,699.302)">
                <path d="M2156,2427C2156,2427 1981.86,2394.81 1734,2545C1812.79,2535.13 1816.52,2488.72 2156,2427Z"/>
            </g>
            <g transform="matrix(1,0,0,1,-816,715.302)">
                <path d="M2115.13,2514.28C2216.38,2500.11 2392.67,2484.98 2355,2558C2322.05,2621.86 2276.17,2650.52 2246.77,2662.95C2239.76,2644.49 2230.85,2626.96 2220.27,2610.59C2253.22,2590.27 2291.51,2558.95 2250,2542C2218.82,2529.27 2179.92,2530.17 2147.94,2534.59C2137.52,2527.1 2126.57,2520.3 2115.13,2514.28Z"/>
            </g>
            <g transform="matrix(1,0,0,1,-816,715.302)">
                <path d="M2193.82,2575.88C2206.61,2560.23 2206.57,2546.79 2213,2562C2217.35,2572.28 2213.62,2583.76 2208.15,2593.3C2203.61,2587.3 2198.83,2581.49 2193.82,2575.88Z"/>
            </g>
            <g transform="matrix(0.863626,-0.0450164,0.0310693,0.596055,-613.398,1798.13)">
                <path d="M1999.02,2499.83C2003.67,2496.99 2009.3,2493.73 2016,2490C2122.58,2430.71 2319,2434 2319,2434C2484.68,2462.44 2279.62,2460 2177,2475C2130.12,2481.85 2070.24,2497.94 2029.16,2507.68C2019.29,2504.39 2009.23,2501.76 1999.02,2499.83Z"/>
            </g>
            <g transform="matrix(0.981354,0.19221,-0.19221,0.981354,-291.64,352.906)">
                <path d="M2199,2392C2199,2392 2248.8,2325.1 2434,2349C2462.41,2359.83 2286.2,2339.24 2199,2392Z"/>
            </g>
            <g transform="matrix(1,0,0,1,-801,715.302)">
                <path d="M1371,3039C1371,3039 1448.86,3099.72 1715,3039C1981.14,2978.28 1650.69,3036.12 1535,3017C1419.31,2997.88 1344.47,3019.14 1371,3039Z"/>
            </g>
            <g transform="matrix(1,0,0,1,-816,715.302)">
                <path d="M1955,2904C1955,2904 2393.39,2777.92 2613,2693C2549.51,2732.21 2201.48,2872.29 2112,2885C2022.52,2897.71 1917.97,2919 1955,2904Z"/>
            </g>
            <g transform="matrix(0.999715,-0.0238818,0.0238818,0.999715,-919.283,793.022)">
                <path d="M2703,2378C2703,2378 2729.29,2444.8 2688,2502C2655.47,2547.06 2566,2566 2566,2566C2566,2566 2617.69,2543.22 2662,2485C2714.73,2415.72 2703,2378 2703,2378Z"/>
            </g>
            <path d="M895.08,3296.47C846.289,3295.9 794.206,3298.77 748.808,3308.82C748.808,3308.82 874.248,3269.93 995.536,3257.03C986.259,3264.31 977.451,3272.16 969.169,3280.53L969.185,3280.53C951.484,3298.41 936.171,3318.65 923.769,3340.74L923.781,3340.74C921.517,3344.76 919.349,3348.85 917.282,3353C916.988,3353.59 916.698,3354.18 916.409,3354.77L916.407,3354.77C912.618,3362.51 909.175,3370.44 906.098,3378.56L906.113,3378.56C902.863,3387.12 900.022,3395.88 897.615,3404.81L897.552,3405.05L897.507,3405.22C897.212,3406.32 896.924,3407.43 896.642,3408.53L896.641,3408.53C893.705,3420.07 891.488,3431.89 890.043,3443.95L890.025,3443.95C888.688,3455.05 888,3466.35 888,3477.8C888,3488.08 888.554,3498.23 889.636,3508.25C889.636,3508.25 784.632,3587.62 834,3584.3C940.611,3577.14 1163.66,3617.86 1795,3284.3C1779.16,3300.85 1697.51,3363.12 1568.7,3431.23C1718.08,3371.37 1928.24,3269.51 1928.24,3269.51C1683.33,3409.53 1490.06,3485.7 1358.25,3526.84C1207.6,3584.65 1026.42,3632.24 828,3641.3C812.618,3642 798.158,3642.48 784.586,3642.73C939.405,3701.42 1156.12,3640.61 1227.57,3644.62C780.859,3764.12 618.156,3623.85 618.156,3623.85C618.156,3623.85 617.909,3623.13 617.561,3621.86C604.735,3613.8 601.057,3603.84 604.274,3592.73C560.772,3629.03 521.385,3672.51 492.525,3724.16C492.525,3724.16 498.409,3599.22 690.802,3478.33C577.769,3526.99 440.217,3603.26 304,3721.3C304,3721.3 498.984,3530.05 732.766,3413.09C604.641,3462.52 445.216,3541.73 272,3668.3C272,3668.3 552.091,3385.64 895.08,3296.47ZM1438.44,3401.36L1438.32,3400.94C1694.81,3274.2 1549,3185.3 1549,3185.3C1441.38,3152.84 1721.95,3149.17 1689,3237.3C1657.05,3329.69 1551.49,3399.62 1447.42,3448.03L1447.38,3447.59C1177.89,3570.25 1059.21,3501.72 1099,3498.3C1285.82,3482.9 1438,3401.3 1438,3401.3C1438,3401.3 1438.15,3401.32 1438.44,3401.36Z"/>
        </g>
    </g>
</svg>
