<?xml version="1.0" encoding="UTF-8" standalone="no"?>
<!DOCTYPE svg PUBLIC "-//W3C//DTD SVG 1.1//EN" "http://www.w3.org/Graphics/SVG/1.1/DTD/svg11.dtd">
<svg width="100%" height="100%" viewBox="0 0 5044 2516" version="1.1" xmlns="http://www.w3.org/2000/svg" xmlns:xlink="http://www.w3.org/1999/xlink" xml:space="preserve" style="fill-rule:evenodd;clip-rule:evenodd;stroke-linejoin:round;stroke-miterlimit:2;">
    <g transform="matrix(1,0,0,1,-5.27879,-8)">
        <g transform="matrix(0.680811,0,0,0.732024,-869.396,-270.117)">
            <g transform="matrix(1.01538,0,0,1.0568,-65.1801,-198.551)">
                <g transform="matrix(1.44658,0,0,1.29265,-1817.24,-884.867)">
                    <g transform="matrix(1,0,0,1,1277,369)">
                        <path d="M2254,2686C2254,2686 2101.82,2767.6 1915,2783C1875.17,2786.42 1994.08,2855.05 2264,2732C2309.62,2692.78 2254,2686 2254,2686Z" style="fill:rgb(224,210,240);"/>
                    </g>
                    <g transform="matrix(1,0,0,1,1277,369)">
                        <path d="M1785.18,2565.23C1763.8,2586.83 1745.9,2611.88 1732.41,2639.47C1596,2672.96 1358.86,2755.08 1088,2953C1088,2953 1409.35,2628.71 1785.18,2565.23Z" style="fill:rgb(224,210,240);"/>
                    </g>
                    <g transform="matrix(1,0,0,1,1277,369)">
                        <path d="M1739.78,2625.44C1727.94,2646.5 1718.74,2669.25 1712.64,2693.23C1606.54,2718.96 1361.18,2797 1120,3006C1120,3006 1431.95,2700.01 1739.78,2625.44Z" style="fill:rgb(224,210,240);"/>
                    </g>
                    <g transform="matrix(0.99115,-0.132749,0.132749,0.99115,923.757,567.581)">
                        <path d="M1729.81,2718.36C1719.25,2737.87 1710.92,2758.86 1705.2,2781.04C1606.3,2797.78 1390.08,2850.96 1274,3006C1274,3006 1311.09,2802.4 1729.81,2718.36Z" style="fill:rgb(224,210,240);"/>
                    </g>
                    <g transform="matrix(1,0,0,1,1284,353)">
                        <path d="M2156,2427C2156,2427 1981.86,2394.81 1734,2545C1812.79,2535.13 1816.52,2488.72 2156,2427Z" style="fill:rgb(224,210,240);"/>
                    </g>
                    <g transform="matrix(1.17091,-0.087244,0.0743035,0.997236,678.977,561.59)">
                        <path d="M1897.83,2521.68C1883.72,2532.8 1870.64,2545.65 1858.85,2560C1805.9,2551.46 1740.26,2545.62 1685,2555C1685,2555 1794,2525.54 1897.83,2521.68Z" style="fill:rgb(224,210,240);"/>
                    </g>
                    <g transform="matrix(1,0,0,1,1277,369)">
                        <path d="M2254.32,2685.64C2510.81,2558.9 2365,2470 2365,2470C2257.38,2437.53 2537.95,2433.87 2505,2522C2473.05,2614.38 2367.49,2684.32 2263.42,2732.73C2261.72,2716.59 2258.64,2700.85 2254.32,2685.64Z" style="fill:rgb(224,210,240);"/>
                    </g>
                    <g transform="matrix(1,0,0,1,1277,369)">
                        <path d="M2115.13,2514.28C2216.38,2500.11 2392.67,2484.98 2355,2558C2322.05,2621.86 2276.17,2650.52 2246.77,2662.95C2239.76,2644.49 2230.85,2626.96 2220.27,2610.59C2253.22,2590.27 2291.51,2558.95 2250,2542C2218.82,2529.27 2179.92,2530.17 2147.94,2534.59C2137.52,2527.1 2126.57,2520.3 2115.13,2514.28Z" style="fill:rgb(224,210,240);"/>
                    </g>
                    <g transform="matrix(1,0,0,1,1277,369)">
                        <path d="M2193.82,2575.88C2206.61,2560.23 2206.57,2546.79 2213,2562C2217.35,2572.28 2213.62,2583.76 2208.15,2593.3C2203.61,2587.3 2198.83,2581.49 2193.82,2575.88Z" style="fill:rgb(224,210,240);"/>
                    </g>
                    <g transform="matrix(0.863626,-0.0450164,0.0310693,0.596055,1479.6,1451.83)">
                        <path d="M1999.02,2499.83C2003.67,2496.99 2009.3,2493.73 2016,2490C2122.58,2430.71 2319,2434 2319,2434C2484.68,2462.44 2279.62,2460 2177,2475C2130.12,2481.85 2070.24,2497.94 2029.16,2507.68C2019.29,2504.39 2009.23,2501.76 1999.02,2499.83Z" style="fill:rgb(224,210,240);"/>
                    </g>
                    <g transform="matrix(1,0,0,1,1277,369)">
                        <path d="M1705.64,2792.95C1705.64,2792.95 1600.63,2872.32 1650,2869C1756.61,2861.84 1979.66,2902.56 2611,2569C2573.61,2608.08 2169.21,2902.02 1644,2926C1164.8,2947.88 1581.36,2747.4 1707.71,2716.79C1705.27,2731.66 1704,2746.93 1704,2762.5C1704,2772.78 1704.55,2782.93 1705.64,2792.95Z" style="fill:rgb(224,210,240);"/>
                    </g>
                    <g transform="matrix(0.981354,0.19221,-0.19221,0.981354,1801.36,6.60412)">
                        <path d="M2199,2392C2199,2392 2248.8,2325.1 2434,2349C2462.41,2359.83 2286.2,2339.24 2199,2392Z" style="fill:rgb(224,210,240);"/>
                    </g>
                    <g transform="matrix(1,0,0,1,1292,369)">
                        <path d="M1371,3039C1371,3039 1448.86,3099.72 1715,3039C1981.14,2978.28 1650.69,3036.12 1535,3017C1419.31,2997.88 1344.47,3019.14 1371,3039Z" style="fill:rgb(224,210,240);"/>
                    </g>
                    <g transform="matrix(0.998127,-0.0611685,0.0611685,0.998127,1112.5,471.084)">
                        <path d="M1424,2899C1424,2899 1577.82,3048.95 2031,2957C1952.83,2947.8 1694.47,3006.11 1546,2904C1397.53,2801.89 1424,2899 1424,2899Z" style="fill:rgb(224,210,240);"/>
                    </g>
                    <g transform="matrix(1,0,0,1,1277,369)">
                        <path d="M1955,2904C1955,2904 2393.39,2777.92 2613,2693C2549.51,2732.21 2201.48,2872.29 2112,2885C2022.52,2897.71 1917.97,2919 1955,2904Z" style="fill:rgb(224,210,240);"/>
                    </g>
                    <g transform="matrix(0.999715,-0.0238818,0.0238818,0.999715,1173.72,446.72)">
                        <path d="M2703,2378C2703,2378 2729.29,2444.8 2688,2502C2655.47,2547.06 2566,2566 2566,2566C2566,2566 2617.69,2543.22 2662,2485C2714.73,2415.72 2703,2378 2703,2378Z" style="fill:rgb(224,210,240);"/>
                    </g>
                    <g transform="matrix(0.999979,-0.00642626,0.00642626,0.999979,1237.91,390.045)">
                        <path d="M2767,2551C2767,2551 2394.51,2728.59 2288,2750C2181.49,2771.41 1993.56,2850.59 1993.56,2850.59C1993.56,2850.59 2276.75,2827.1 2767,2551Z" style="fill:rgb(224,210,240);"/>
                    </g>
                </g>
                <g transform="matrix(1.44658,0,0,1.29265,30.047,-407.881)">
                    <path d="M1890,2211C1890,2211 641.983,2781.38 946,3113C1257.96,3453.28 2204.73,3124.05 3116,2709C3233.91,2627.53 3252.51,2585.09 2825,2712C2397.49,2838.91 1496.28,3298.75 1078,3028C898.172,2917.31 1610.56,2463.05 1754,2385C1897.44,2306.95 1981.95,2155.51 1890,2211Z" style="fill:rgb(90,84,105);"/>
                </g>
                <g transform="matrix(1.44658,0,0,1.01968,-84.2329,207.831)">
                    <path d="M6021,333L5207,838C5207,838 4457.11,1212.29 4074,1352C3690.89,1491.71 2767.6,1822.89 2785,1862C2802.4,1901.11 3491.52,1729.97 3608,1831C3768.69,1970.37 3604.11,2323.1 3630,2345C3655.89,2366.9 4195.97,1805.93 4453,1553C4710.03,1300.07 5150.45,916.433 5246,860C5341.55,803.567 6029.73,354.583 6021,333Z" style="fill:rgb(90,84,105);"/>
                </g>
            </g>
        </g>
    </g>
</svg>
